<?xml version="1.0" encoding="UTF-8"?>
<svg version="1.1" viewBox="0 0 2048 2048" width="100" height="100" xmlns="http://www.w3.org/2000/svg">
 <g transform="translate(-76.281 1206.4)">
  <path d="m1160.5-983.99c-532.31 0-963.82 358.95-963.82 801.66 0 182.08 73.002 349.96 195.98 484.54-80.354 102.52-201.61 175.34-316.35 255.02 161.1-13.014 326.6-43.572 467.48-123.63 167.13 115.87 382.1 185.63 616.7 185.63 532.31 0 963.82-358.85 963.82-801.57 0-442.71-431.51-801.66-963.82-801.66z" color="#000000" fill="#2790f6"/>
  <path d="m1349.8-600.12-783.84 288.85v257.8l66.989 24.726v163.59c0 47.142 37.96 85.102 85.102 85.102s85.102-37.96 85.102-85.102v-100.91l546.64 201.45v-835.49zm268.24 67.468a40.911 40.911 0 0 0 -12.459 2.6834c-3.5825 1.3662-8.0717 2.9894-13.417 5.2709a40.911 40.911 0 0 0 -14.184 65.072c142.97 157.47 143.12 396.96 0.1917 554.41a40.911 40.911 0 0 0 14.184 64.976c4.2206 1.7988 8.6359 3.7395 13.417 5.5584a40.911 40.911 0 0 0 45.138 -11.021c170.4-191.44 170.22-481.93-0.1917-673.34a40.911 40.911 0 0 0 -32.68 -13.609zm-120.56 77.914a31.815 31.815 0 0 0 -9.5836 2.0126c-2.7859 1.0625-6.2892 2.3466-10.446 4.1209a31.815 31.815 0 0 0 -11.117 50.601c111.18 122.46 111.34 308.72 0.1917 431.16a31.815 31.815 0 0 0 11.021 50.601c3.2822 1.3989 6.7281 2.8022 10.446 4.2168a31.815 31.815 0 0 0 35.076 -8.5293c132.52-148.87 132.42-374.79-0.096-523.64a31.815 31.815 0 0 0 -25.492 -10.542z" color="#000000" fill="#fff"/>
 </g>
</svg>
